<?xml version="1.0" encoding="UTF-8"?>
<svg xmlns="http://www.w3.org/2000/svg" xmlns:xlink="http://www.w3.org/1999/xlink" width="220px" height="278px" viewBox="0 0 220 277" version="1.1">
<g id="surface1">
<path style=" stroke:none;fill-rule:nonzero;fill:rgb(60%,0%,0%);fill-opacity:1;" d="M 71.867188 0 L 71.867188 20.796875 L 88.082031 20.796875 L 88.082031 173.511719 L 57.199219 173.511719 L 57.199219 57.675781 L 71.703125 57.675781 L 71.703125 36.796875 L 0 36.796875 L 0 57.675781 L 16.214844 57.675781 L 16.214844 191.871094 L 42.535156 218.675781 L 88.082031 218.675781 L 88.082031 249.625 L 71.867188 249.625 L 71.867188 276.429688 L 147.96875 276.429688 L 147.96875 249.625 L 131.753906 249.625 L 131.753906 218.675781 L 177.304688 218.675781 L 203.621094 191.871094 L 203.621094 57.675781 L 219.835938 57.675781 L 219.835938 36.796875 L 148.132812 36.796875 L 148.132812 57.675781 L 162.636719 57.675781 L 162.636719 173.511719 L 131.753906 173.511719 L 131.753906 20.796875 L 147.96875 20.796875 L 147.96875 0 Z M 71.867188 0 "/>
</g>
</svg>
